<svg width="67" height="61" viewBox="0 0 67 61" fill="none" xmlns="http://www.w3.org/2000/svg">
<path d="M34 60.9999C30.0269 60.9999 26.3059 60.2469 22.8372 58.7408C19.3684 57.2347 16.3488 55.1987 13.7785 52.6329C11.2081 50.067 9.16862 47.0527 7.6599 43.59C6.15118 40.1272 5.39576 36.4117 5.39364 32.4434C5.39152 28.4751 6.14694 24.7606 7.6599 21.3C9.17286 17.8394 11.2113 14.8251 13.7753 12.2571C16.3393 9.68913 19.3588 7.65315 22.834 6.14917C26.3091 4.6452 30.0311 3.89109 34 3.88686C37.9689 3.88263 41.6909 4.63673 45.166 6.14917C48.6412 7.66161 51.6607 9.69759 54.2247 12.2571C56.7887 14.8166 58.8282 17.8309 60.3433 21.3C61.8583 24.7691 62.6127 28.4836 62.6064 32.4434C62.6 36.4032 61.8456 40.1188 60.3433 43.59C58.8409 47.0612 56.8014 50.0755 54.2247 52.6329C51.648 55.1903 48.6284 57.2262 45.166 58.7408C41.7036 60.2553 37.9816 61.0084 34 60.9999ZM2.37408 14.3576C1.79136 13.7759 1.5 13.0355 1.5 12.1365C1.5 11.2375 1.79136 10.4972 2.37408 9.91546L11.4328 0.87256C12.0155 0.290853 12.7571 0 13.6577 0C14.5583 0 15.2999 0.290853 15.8826 0.87256C16.4654 1.45427 16.7567 2.19462 16.7567 3.09362C16.7567 3.99263 16.4654 4.73298 15.8826 5.31469L6.82396 14.3576C6.24124 14.9393 5.49959 15.2302 4.59902 15.2302C3.69845 15.2302 2.9568 14.9393 2.37408 14.3576ZM65.6259 14.3576C65.0432 14.9393 64.3015 15.2302 63.401 15.2302C62.5004 15.2302 61.7588 14.9393 61.176 14.3576L52.1174 5.31469C51.5346 4.73298 51.2433 3.99263 51.2433 3.09362C51.2433 2.19462 51.5346 1.45427 52.1174 0.87256C52.7001 0.290853 53.4417 0 54.3423 0C55.2429 0 55.9845 0.290853 56.5672 0.87256L65.6259 9.91546C66.2086 10.4972 66.5 11.2375 66.5 12.1365C66.5 13.0355 66.2086 13.7759 65.6259 14.3576Z" fill="#569FE5"/>
<path d="M26.25 47.1053V48.0789C26.25 48.8904 25.9678 49.5804 25.4033 50.149C24.8389 50.7176 24.1523 51.0013 23.3437 51C22.5352 50.9987 21.8493 50.715 21.2861 50.149C20.723 49.583 20.4401 48.8929 20.4375 48.0789V45.0605C19.8562 44.4114 19.388 43.6896 19.0328 42.8951C18.6776 42.1005 18.5 41.232 18.5 40.2895V21.7895C18.5 19.0956 19.7432 17.1242 22.2297 15.8753C24.7161 14.6264 28.6396 14.0013 34 14C39.5542 14 43.526 14.6004 45.9156 15.8013C48.3052 17.0022 49.5 18.9982 49.5 21.7895V40.2895C49.5 41.2307 49.3224 42.0992 48.9672 42.8951C48.612 43.6909 48.1437 44.4127 47.5625 45.0605V48.0789C47.5625 48.8904 47.2803 49.5804 46.7158 50.149C46.1514 50.7176 45.4648 51.0013 44.6562 51C43.8477 50.9987 43.1618 50.715 42.5986 50.149C42.0355 49.583 41.7526 48.8929 41.75 48.0789V47.1053H26.25ZM22.375 26.6579C22.375 28.2711 23.6828 29.5789 25.2961 29.5789H42.7039C44.3172 29.5789 45.625 28.2711 45.625 26.6579V26.6579C45.625 25.0446 44.3172 23.7368 42.7039 23.7368H25.2961C23.6828 23.7368 22.375 25.0446 22.375 26.6579V26.6579ZM27.2187 41.2632C28.026 41.2632 28.7126 40.9795 29.2783 40.4122C29.8441 39.8448 30.1263 39.1548 30.125 38.3421C30.1237 37.5294 29.8415 36.84 29.2783 36.274C28.7151 35.708 28.0286 35.4237 27.2187 35.4211C26.4089 35.4185 25.723 35.7028 25.1611 36.274C24.5992 36.8452 24.3164 37.5346 24.3125 38.3421C24.3086 39.1496 24.5915 39.8396 25.1611 40.4122C25.7307 40.9847 26.4166 41.2684 27.2187 41.2632ZM40.7812 41.2632C41.5885 41.2632 42.2751 40.9795 42.8408 40.4122C43.4066 39.8448 43.6888 39.1548 43.6875 38.3421C43.6862 37.5294 43.404 36.84 42.8408 36.274C42.2776 35.708 41.5911 35.4237 40.7812 35.4211C39.9714 35.4185 39.2855 35.7028 38.7236 36.274C38.1617 36.8452 37.8789 37.5346 37.875 38.3421C37.8711 39.1496 38.154 39.8396 38.7236 40.4122C39.2932 40.9847 39.9791 41.2684 40.7812 41.2632Z" fill="white"/>
</svg>
